<?xml version="1.0" encoding="UTF-8"?>
<svg width="63.256mm" height="86.536mm" version="1.1" viewBox="0 0 63.256 86.536" xmlns="http://www.w3.org/2000/svg" xmlns:cc="http://creativecommons.org/ns#" xmlns:dc="http://purl.org/dc/elements/1.1/" xmlns:osb="http://www.openswatchbook.org/uri/2009/osb" xmlns:rdf="http://www.w3.org/1999/02/22-rdf-syntax-ns#">
 <metadata>
  <rdf:RDF>
   <cc:Work rdf:about="">
    <dc:format>image/svg+xml</dc:format>
    <dc:type rdf:resource="http://purl.org/dc/dcmitype/StillImage"/>
    <dc:title/>
   </cc:Work>
  </rdf:RDF>
 </metadata>
 <g transform="translate(-66.495 -65.089)" stroke="#5b2815">
  <path d="m74.343 112.37c-2.3919 1.6842-2.3691 4.2578-5.0181 5.6744" fill="none" stroke-width="1.25"/>
  <circle cx="68.642" cy="119.49" r="1.6472" fill-opacity="0" stroke-linecap="round" stroke-linejoin="round"/>
 </g>
 <g transform="translate(-66.495 -65.089)" fill="#5a2815" stroke="#5b2815" stroke-width=".5">
  <ellipse transform="rotate(-30.07)" cx="62.741" cy="142.8" rx="1.1459" ry="5.479"/>
  <ellipse transform="rotate(-30.07)" cx="59.108" cy="140.71" rx="1.1459" ry="5.479"/>
 </g>
 <g transform="translate(-66.495 -65.089)" fill="#ffbf5d" stroke="#5b2815" stroke-linejoin="round" stroke-width="1.25">
  <path d="m102 129.69-1 20.312h-3l-2-20.312z"/>
  <path d="m79 130-1 20h-3l-2.302-23.044z" stroke-linecap="round"/>
 </g>
 <g transform="translate(-66.495 -65.089)">
  <path d="m100.54 94.704h-9.5417c-5.3594 0-9.7041-4.3446-9.7041-9.704s4.3447-9.7041 9.7041-9.7041c5.3594-1e-6 9.7041 4.3447 9.7041 9.7041-0.0689 8.7484 0.15311 13.819-0.51454 19.209-0.66766 5.3896-4.3161 6.7114-7.3694 6.7911-3.0533 0.0797-9.1815 9.3e-4 -16.156 0-2.0339-2.7e-4 -4.0189 1.9997-4.019 3.717-3e-5 0.87707-0.0014 4.8672 0 5.8082v5.7581c5.8e-5 2.3784 1.9851 3.7164 4.019 3.7167s4.9229-0.0152 5.336 0l2 21h3l1-21h17l2 21 3 2e-5 1-21v-15.35l0.28631-29.65c0.10818-11.203-9.0825-19.286-20.286-19.286s-18.286 8.0822-18.286 19.286 7.0822 17.286 18.286 17.286h9.1613m11.245 0h8.0367c1.1132 0 1.308 1.2511 1.3003 2.3563-8e-3 1.1052-0.31636 5.1993 1.1578 6.0919 1.6704 1.0115 3.0187-0.32567 4.0711-3.1349 1.0524-2.8092 2.5851-8.0093 2.9931-9.5664s0.0645-3.3135-1.5584-3.3165c-2.2506-0.0042-6.7519-0.01247-6.7519-0.01247v3e-6h-9.2487" fill="#ffbf5d" stroke="#5b2815" stroke-linecap="round" stroke-linejoin="round" stroke-width="1.25"/>
 </g>
 <g transform="translate(-66.495 -65.089)">
  <circle cx="81.293" cy="116.75" r="3.1503" fill="#5a2815" stroke="#5b2815" stroke-width=".93014"/>
  <path transform="rotate(147.89)" d="m-4.1007-158.46a4.3376 4.3376 0 0 1 1.9354 4.9641 4.3376 4.3376 0 0 1-4.3367 3.0953 4.3376 4.3376 0 0 1-4.0656-3.4436 4.3376 4.3376 0 0 1 2.3396-4.7869" fill-opacity="0" stroke="#5b2815"/>
  <g fill="#5a2815">
   <path transform="matrix(.64589 .76343 -.836 .54873 0 0)" d="m169.3-1.9994a7.378 7.6493 0 0 1-7.0167-0.82301 7.378 7.6493 0 0 1-3.1358-6.5596" stroke-opacity="0"/>
   <g stroke="#5b2815">
    <circle cx="99.351" cy="112.91" r="2.5797" fill-opacity=".0068729"/>
    <circle cx="107.16" cy="95.052" r="2.5163" stroke-width=".74294"/>
    <path transform="rotate(229.16)" d="m-120.44 22.362a3.3555 3.3555 0 0 1-1.722 2.9311 3.3555 3.3555 0 0 1-3.3986-0.0772 3.3555 3.3555 0 0 1-1.5871-3.0062" fill-opacity=".0068729"/>
   </g>
   <path transform="rotate(-37.455)" d="m31.277 106.42a3.5539 3.5539 0 0 1-2.636 3.4333 3.5539 3.5539 0 0 1-3.9976-1.6599 3.5539 3.5539 0 0 1 0.57111-4.2907" stroke-opacity="0"/>
   <path transform="rotate(74.571)" d="m105.61-54.974a3.1055 3.1055 0 0 1-2.3034 3.0001 3.1055 3.1055 0 0 1-3.4933-1.4505 3.1055 3.1055 0 0 1 0.49906-3.7493" stroke-opacity="0"/>
   <circle cx="88.569" cy="99.219" r="1.8594" fill-opacity=".0068729" stroke="#5b2815"/>
   <circle cx="113.14" cy="96.738" r="1.8594" fill-opacity=".0068729" stroke="#5b2815"/>
  </g>
  <circle cx="125.56" cy="97.84" r="1.25" stroke="#fff" stroke-width=".5"/>
 </g>
</svg>
